<?xml version="1.0" encoding="UTF-8"?><svg id="buffalo_prototype_2__Image" xmlns="http://www.w3.org/2000/svg" viewBox="0 0 274.32 195.68"><defs><style>.cls-1{fill:#6768ab;stroke:#6768ab;stroke-miterlimit:10;stroke-width:4px;}</style></defs><path class="cls-1" d="M128.55,66.9c-.2-1.17-.47-2.21-.54-3.27-.21-3.38,.61-6.56,1.85-9.68,3.96-9.98,11.46-16.85,19.9-22.95,2.25-1.63,4.58-2.72,7.39-2.64,.18,0,.35-.09,.71-.18-4.17-5.1-5.34-10.66-2.86-16.73,1.71-4.18,4.82-7.01,9.05-8.55,8.47-3.09,18.89,1.88,20.95,12.75,.28-.57,.92-1.27,.77-1.7-.77-2.2,.32-3.79,1.63-5.19,2.49-2.67,4.31-3.36,7.35-1.48,1.78,1.1,3.49,2.39,4.96,3.86,1.33,1.33,1.75,3.14,.78,4.96-.78,1.47-1.45,3.06-2.51,4.31-3.72,4.43-7.61,8.73-11.39,13.12-1.64,1.9-3.58,3.15-6.02,3.83-3.83,1.07-7.58,2.44-11.81,2.59,.36,1.18,.68,2.31,1.06,3.42,2.73,8.02,6.56,15.51,10.85,22.78,.79,1.34,1.47,2.74,2.27,4.07,.16,.27,.68,.56,.95,.5,.92-.21,1.8-.58,2.62-.86-.43-2.45-.8-4.81-1.28-7.15-.83-4.04,.23-7.8,1.84-11.4,2.64-5.9,7.45-8.89,13.76-9.57,1.78-.19,3.59-.08,5.39-.08,.99,0,1.88,.25,2.1,1.37,.23,1.12-.65,1.45-1.41,1.94-1.68,1.05-3.49,2.01-4.9,3.37-2.78,2.68-2.66,7.14,.01,9.94,3.23,3.39,7.35,4.69,11.88,4.88,2.36,.1,4.43,.89,6.4,2.11,.39,.24,1.01,.27,1.48,.19,6.35-1.19,12.78-2.32,19.1-.42,2.53,.76,4.82,2.66,6.92,4.39,6.11,5.03,10.51,11.46,14.43,18.25,1.62,2.8,3.05,5.71,4.58,8.56,.94,1.75,1.75,3.59,3.9,4.31,.43,.14,.78,.9,.93,1.44,1.58,5.5,.28,10.41-3.13,14.87-.22,.29-.44,.57-.68,.84-1.31,1.56-2.63,2.73-4.93,3.12-10.45,1.8-20.37,5.41-29.9,9.98-4.36,2.09-8.79,3.73-13.74,4.68,.31,.48,.52,.84,.76,1.17,2.62,3.65,4.96,7.46,6.55,11.67,.36,.95,.51,2.1,.37,3.11-.84,6.19-2.84,11.95-6.64,16.99-2.44,3.24-5.48,5.81-8.88,7.96-.43,.27-1.09,.39-1.6,.31-.99-.16-1.52,.29-2.08,1.01-4.24,5.41-9.24,10.04-14.51,14.44-1.95,1.62-3.86,1.85-6.09,1.25-3.85-1.03-6.88-3.35-9.48-6.24-1.15-1.27,.06-2.46,.7-3.43,1.58-2.4,3.37-4.66,5.05-7,1.17-1.62,2.32-3.25,3.42-4.92,.21-.32,.31-.94,.14-1.24-3.19-5.68-6.44-11.32-9.65-16.98-.44-.78-.93-.98-1.83-.77-8.22,1.87-16.56,2.62-24.97,2.89-6.16,.2-12.19-.79-18.2-1.89-2.01-.37-3.31-.22-4.78,1.48-6.14,7.07-12.69,13.75-19.79,19.87-2.54,2.19-5.17,4.28-7.84,6.31-.51,.39-1.45,.51-2.09,.36-3.48-.83-6.24-2.77-8.19-5.81-.11-.17-.24-.32-.39-.52-2,1.25-4.06,2.39-5.95,3.76-2.25,1.62-4.28,1.59-6.7,.23-3.9-2.18-7.19-4.86-9.25-8.9-.5-.97-.39-1.64,.24-2.59,1.65-2.49,3.02-5.16,4.6-7.7,3.82-6.18,6.4-12.99,9.97-19.3,1.02-1.8,2.01-3.62,2.95-5.47,.19-.38,.23-1.02,.03-1.37-2.06-3.66-2.88-7.64-3.29-11.76-.56-5.64-.19-11.26,.37-16.87,.22-2.25,.7-4.48,1.05-6.72,.05-.31,.05-.63,.1-1.32-.66,.86-1.18,1.41-1.54,2.05-1.92,3.41-3.92,6.78-5.66,10.27-3.83,7.7-9.3,13.72-17.17,17.4-.29,.14-.57,.28-.86,.42-2.28,1.07-4.27,2.34-5.86,4.49-2.24,3.02-5.25,5.23-9.05,6.13-2.41,.57-4.34-.16-5.81-2.1-1.18-1.57-1.85-3.35-2.01-5.31-.19-2.31,.99-4.4,3.42-5.4,4.01-1.66,8.12-2.73,12.46-1.1,.32,.12,.82,.07,1.11-.11,2.31-1.42,4.66-2.8,6.88-4.37,5.27-3.73,8.8-8.89,11.42-14.68,2.28-5.04,4.78-9.93,8.44-14.16,2.62-3.04,5.78-5.4,9.13-7.52,2.05-1.29,3.78-2.87,5.39-4.68,5.42-6.07,11.99-10.26,20.06-11.87,4.28-.85,8.58-.9,12.89-.26,.62,.09,1.24,.16,1.96,.26Zm36.75-34.33h-.32l.15,.21c.72,1.28,1.41,2.58,2.18,3.84,.15,.25,.59,.4,.91,.44,3.56,.42,6.81-.94,10.16-1.79,2.96-.75,5.32-2.26,7.29-4.65,3.25-3.95,6.75-7.69,10.04-11.6,.96-1.14,1.57-2.56,2.32-3.87,.51-.89,.33-1.79-.38-2.4-1.25-1.09-2.55-2.17-3.96-3.03-1.96-1.18-2.75-.95-4.26,.8-.28,.33-.49,.72-.73,1.09-.49,.76-.48,1.52,.13,2.2,.55,.61,1.16,1.19,1.77,1.75,.58,.53,.99,1.12,.49,1.88-.52,.8-1.26,.75-1.99,.3-.5-.31-.97-.68-1.44-1.01-1.88,1.61-2.91,3.17-3.56,5.36-.13,.42-.28,.83-.45,1.24-2.61,6.47-9.63,11.22-18.35,9.25Zm15.36,120.69h-.31l.11,.28c.11,.21,.21,.43,.32,.63,2.89,5.15,5.79,10.31,8.69,15.45,.63,1.12,.68,2.13-.16,3.21-1.03,1.32-1.92,2.75-2.9,4.12-2.11,2.95-4.23,5.9-6.34,8.84,1.88,2.57,6.02,5.03,9.09,5.3,.57,.05,1.28-.15,1.74-.5,5.26-4.02,10.03-8.55,14.22-13.68,.32-.39,.63-.8,.84-1.06-1.32-1.4-2.56-2.69-3.76-4-1.01-1.09-1.48-2.26-.43-3.63,.31-.4,.47-.93,.65-1.41,.84-2.21,1.67-4.43,2.48-6.61-3.57-.93-6.95-1.72-10.28-2.69-4.67-1.35-9.31-2.84-13.96-4.26Zm2.27-2.14c.21,.1,.47,.26,.75,.35,7.4,2.41,14.82,4.76,22.48,6.25,1.56,.3,1.97,.93,1.42,2.45-1.09,3-2.25,5.97-3.35,8.97-.12,.33-.2,.83-.03,1.07,1.03,1.49,2.24,2.84,3.97,3.53,.9,.36,1.76,.62,2.8-.07,7.4-4.92,11.51-11.92,13.12-20.5,.24-1.29,.47-2.79,.05-3.97-1.97-5.61-5.34-10.51-9.08-14.99-4.75-5.67-10.81-9.83-17.92-12.21-2.04-.68-4.16-1.1-6.25-1.63-.8-.2-1.35-.64-1.17-1.51,.18-.86,.87-1.08,1.67-.98,.55,.07,1.11,.18,1.65,.29,9.03,1.89,16.5,6.56,22.82,13.11,1.45,1.5,2.71,1.78,4.68,1.37,4.63-.97,8.81-3,13.06-4.95,8.76-4.03,17.82-7.27,27.3-9.14,2.33-.46,4.21-1.21,5.65-3.28,2.5-3.58,3.84-7.34,2.84-11.71-.09-.38-.34-.84-.65-1.02-1.79-1.02-2.87-2.62-3.81-4.36-1.88-3.48-3.63-7.03-5.62-10.44-3.8-6.48-8.17-12.54-14.16-17.22-1.49-1.16-3.14-2.27-4.89-2.93-4.21-1.58-8.6-.93-12.93-.46-1.33,.14-2.64,.41-4.12,.64,.24,.42,.37,.65,.5,.88,3.57,6.38,2.56,14.18-5.36,17.78-3.82,1.74-7.8,1.55-11.76,.72-8.42-1.76-14.93-6.09-18.62-14.12-.13-.28-.31-.53-.47-.78-1.03,.35-1.96,.7-2.92,.97-.74,.2-1.22,.51-1.54,1.29-.51,1.23-1.51,1.98-2.84,2.35-2.71,.75-5.24,.39-7.57-1.13-2.08-1.36-4.28-.57-6.61-.74,.72,1.76,1.37,3.25,1.93,4.78,.98,2.66-.16,5.32-2.71,6.49-.33,.15-.65,.31-.97,.46-8.15,3.96-16.77,6.61-25.49,8.98-.35,.09-.84,.05-1.14-.13-4.33-2.53-4.63-7.15-2.3-9.87,2.66-3.1,5.88-5.52,9.24-7.77,.37-.25,.73-.51,1.3-.9-3.33-1.18-6.42-2.13-9.4-3.37-1.82-.75-3.45-1.94-5.17-2.92-.63-.36-1.25-.85-1.93-1-6.74-1.46-13.42-1.41-19.95,1.02-6.84,2.55-12.07,7.13-16.39,12.95-5.11,6.88-7.61,14.62-8.26,23.07-.39,5.06-.82,10.12-.28,15.2,.38,3.62,.9,7.24,2.85,10.39,1.06,1.71,1.03,3.17-.01,4.76-.31,.46-.56,.97-.83,1.46-5.51,9.97-10,20.49-16.15,30.11-.49,.77-.26,1.33,.14,1.96,2.17,3.4,5.33,5.56,8.96,7.09,.35,.15,.94,.02,1.31-.18,1.39-.78,2.75-1.61,4.09-2.48,11.18-7.22,21.23-15.87,31.21-24.61,.1-.09,.14-.24,.25-.45-.8-.25-1.53-.45-2.24-.69-.85-.28-1.67-.69-1.36-1.75,.32-1.06,1.23-.99,2.09-.72,6.98,2.2,14.08,3.91,21.33,4.96,4.07,.59,8.18,1.26,12.27,1.27,6.83,.03,13.65-.53,20.42-1.64,8.59-1.42,16.91-3.73,24.86-7.3,1.55-.7,2.42-.65,2.69,.25,.4,1.37-.71,1.72-1.62,2.08-3.91,1.55-7.84,3.07-11.8,4.61Zm-25.67-98.13c-1.28-2.58-2.66-5.37-4.03-8.16-.51-1.04-1.02-2.08-1.5-3.14-.33-.74-.28-1.46,.52-1.85,.82-.4,1.36,.09,1.78,.76,.11,.17,.17,.36,.26,.54,1.28,2.62,2.54,5.25,3.86,7.85,3.6,7.13,7.26,14.24,11.92,20.77,1.17,1.64,2.5,3.12,4.32,4.08,1.75,.92,3.56,1.15,5.42,.4,.85-.34,1.29-1.03,1.02-1.91-.35-1.13-.71-2.32-1.34-3.31-3.65-5.75-6.83-11.74-9.45-18.01-1.67-4.01-2.98-8.17-4.66-12.18-.79-1.89-1.88-3.73-3.18-5.31-2.5-3.03-6.53-3.5-9.69-1.2-3.22,2.35-6.44,4.75-9.41,7.41-5.89,5.27-10.28,11.57-12.17,19.39-1.45,6.01,.7,10.22,6.17,12.14,2.86,1,5.73,1.95,8.56,3.03,2.39,.91,4.73,1.94,7.06,2.98,.75,.33,1.23,1,.76,1.86-.43,.79-1.16,.75-1.88,.42-.73-.33-1.43-.72-2.18-.99-.32-.12-.82-.12-1.09,.05-3.97,2.48-7.85,5.08-10.96,8.66-.86,.99-1.03,2.02-.8,3.21,.36,1.85,1.66,2.73,3.42,2.2,4.24-1.27,8.52-2.46,12.68-3.96,3.79-1.36,7.46-3.04,11.16-4.65,1.83-.8,2.15-1.66,1.6-3.54-.13-.46-.3-.91-.48-1.35-3.17-7.9-8.81-13.61-15.96-17.95-1.91-1.16-3.93-2.13-5.9-3.19-.73-.4-1.28-.96-.84-1.84,.43-.86,1.2-.82,1.96-.45,.97,.46,1.95,.93,2.9,1.44,1.33,.71,2.63,1.46,3.62,2.01,2.23-2.11,4.3-4.08,6.53-6.19Zm37.34,25.06l-.31,.35c.34,.19,.74,.32,1.02,.58,3.01,2.71,6.53,4.42,10.44,5.36,3.36,.81,6.79,1.42,10.16,.25,3.41-1.19,6.38-3.04,7.01-7.04,.85-5.39-1.44-9.46-6.56-11.37-1.37-.51-2.97-.43-4.47-.61-4.37-.53-8.27-2.07-11.42-5.24-4.27-4.31-3.99-10.78,.62-14.74,.47-.4,.95-.8,1.51-1.26-4.86-.28-10.43,2.25-12.74,7.25-.93,2.01-1.38,4.23-2.11,6.33-.36,1.04,.08,1.42,1.01,1.66,1.87,.48,3.71,.39,5.55-.11,.8-.21,1.47-.02,1.73,.82,.26,.84-.2,1.4-.97,1.67-.6,.21-1.23,.43-1.85,.45-1.76,.06-3.53,.02-5.37,.02,.01-.05-.04,.06-.03,.17,.5,4.25,1.6,8.31,3.9,11.96,.25,.4,.97,.74,1.46,.73,2.34-.03,4.61-.4,6.55-1.89,.7-.54,1.49-.76,2.11,.06,.62,.83,.19,1.58-.53,2.05-.92,.61-1.9,1.19-2.93,1.57-1.21,.44-2.51,.66-3.78,.97Zm-12.41-60.49c.08-7.11-5.66-12.89-12.92-13-7.03-.11-12.86,5.74-12.93,12.98-.07,6.99,5.69,12.83,12.74,12.93,7.2,.1,13.03-5.64,13.11-12.92Zm-55.82,135.13c-2.3-.58-4.37-1.13-6.45-1.6-.29-.07-.74,.18-.99,.41-8.58,7.65-17.35,15.09-26.69,21.81-.6,.43-.67,.74-.28,1.33,1.39,2.12,3.28,3.59,5.68,4.34,.44,.14,1.12,0,1.51-.28,1.28-.89,2.49-1.87,3.69-2.86,6.87-5.63,13.15-11.88,19.21-18.37,1.43-1.53,2.81-3.11,4.32-4.79Zm-79.57-26.91c-2.21,.61-4.52,1.16-6.78,1.89-1.2,.39-2.05,1.29-2.03,2.67,.02,1.78,.61,3.42,1.9,4.63,.54,.51,1.55,.95,2.22,.82,4.21-.82,7.11-3.55,9.47-6.95,.57-.82,.22-1.51-.59-1.81-1.29-.48-2.64-.79-4.19-1.24Zm7.21,.44l.14,.33c.17-.02,.37,0,.52-.07,1.22-.6,2.41-1.24,3.64-1.83,6.73-3.19,11.54-8.32,14.96-14.84,1.54-2.94,2.99-5.92,4.61-8.81,1.69-3.01,3.56-5.9,6.63-7.75,.17-.1,.38-.22,.45-.38,.77-1.76,1.52-3.53,2.28-5.3l-.27-.23c-.91,.71-1.85,1.38-2.72,2.14-4.79,4.15-7.9,9.45-10.54,15.12-1.39,3-2.98,5.93-4.75,8.72-3.17,5.01-7.66,8.64-12.77,11.54-.74,.42-1.45,.91-2.18,1.36ZM153.27,60.79c.16,.2,.2,.28,.26,.32,4.14,3.01,7.75,6.54,10.57,10.84,.14,.21,.4,.49,.61,.5,1.28,.05,2.57,.02,3.81,.02-3.43-5.73-6.72-11.22-10.05-16.78-2.09,1.27-3.92,2.87-5.19,5.1Z"/><path class="cls-1" d="M72.04,52.39c15.07,0,30.15,0,45.22,0,.52,0,1.1-.08,1.54,.12,.4,.18,.88,.69,.89,1.07,.01,.38-.44,.87-.82,1.13-.29,.2-.77,.14-1.17,.14-30.42,0-60.85,0-91.27,0-.36,0-.81,.07-1.05-.12-.39-.31-.87-.78-.89-1.2-.02-.34,.52-.84,.92-1.04,.4-.19,.94-.1,1.42-.1,15.07,0,30.15,0,45.22,0Z"/><path class="cls-1" d="M47.1,188.92c-10.48,0-20.95,0-31.43,0-.44,0-.96,.12-1.3-.07-.49-.28-.84-.79-1.25-1.2,.42-.41,.79-.88,1.27-1.19,.26-.17,.7-.06,1.06-.06,21.11,0,42.22,0,63.33,0,1.69,0,2.52,.44,2.36,1.33-.24,1.38-1.41,1.18-2.38,1.18-10.56,0-21.11,0-31.67,0Z"/><path class="cls-1" d="M34.38,79.31c9.88,0,19.76,0,29.64,0,.44,0,.97-.12,1.3,.08,.48,.29,.82,.81,1.22,1.23-.4,.38-.76,.82-1.22,1.11-.23,.15-.62,.06-.94,.06-20.08,0-40.16,0-60.24,0-.2,0-.4,0-.6,0-.79-.02-1.5-.27-1.53-1.17-.03-.97,.7-1.29,1.54-1.3,2.6-.02,5.2-.01,7.8-.01,7.68,0,15.36,0,23.04,0Z"/><path class="cls-1" d="M31.8,151.36c8.64,0,17.27,0,25.91,0,.48,0,1.02-.07,1.41,.13,.4,.21,.87,.7,.88,1.08,.01,.38-.44,.89-.82,1.13-.33,.21-.85,.16-1.28,.16-17.39,0-34.78,0-52.18,0-.32,0-.72,.09-.94-.07-.46-.34-.82-.81-1.23-1.22,.42-.4,.79-.88,1.28-1.17,.3-.18,.78-.06,1.18-.06,8.6,0,17.19,0,25.79,0Z"/><path class="cls-1" d="M165.13,32.78l-.15-.21c.11,0,.21,0,.32,0-.06,.07-.11,.14-.17,.21Z"/><path class="cls-1" d="M180.45,153.54l-.11-.28c.1,0,.21,0,.31,0-.07,.09-.14,.19-.21,.28Z"/></svg>