<?xml version="1.0" encoding="utf-8"?>
<!-- Generator: Adobe Illustrator 23.0.5, SVG Export Plug-In . SVG Version: 6.00 Build 0)  -->
<svg version="1.1" id="buffalo_x5F_prototype_x28_2_x29__xA0_Image_1_"
	 xmlns="http://www.w3.org/2000/svg" xmlns:xlink="http://www.w3.org/1999/xlink" x="0px" y="0px" viewBox="0 0 288 288"
	 style="enable-background:new 0 0 288 288;" xml:space="preserve">
<style type="text/css">
	.st0{fill:#6768AB;}
</style>
<path class="st0" d="M135.39,110.94c-0.2-1.17-0.47-2.21-0.54-3.27c-0.21-3.38,0.61-6.56,1.85-9.68
	c3.96-9.98,11.46-16.85,19.9-22.95c2.25-1.63,4.58-2.72,7.39-2.64c0.18,0,0.35-0.09,0.71-0.18c-4.17-5.1-5.34-10.66-2.86-16.73
	c1.71-4.18,4.82-7.01,9.05-8.55c8.47-3.09,18.89,1.88,20.95,12.75c0.28-0.57,0.92-1.27,0.77-1.7c-0.77-2.2,0.32-3.79,1.63-5.19
	c2.49-2.67,4.31-3.36,7.35-1.48c1.78,1.1,3.49,2.39,4.96,3.86c1.33,1.33,1.75,3.14,0.78,4.96c-0.78,1.47-1.45,3.06-2.51,4.31
	c-3.72,4.43-7.61,8.73-11.39,13.12c-1.64,1.9-3.58,3.15-6.02,3.83c-3.83,1.07-7.58,2.44-11.81,2.59c0.36,1.18,0.68,2.31,1.06,3.42
	c2.73,8.02,6.56,15.51,10.85,22.78c0.79,1.34,1.47,2.74,2.27,4.07c0.16,0.27,0.68,0.56,0.95,0.5c0.92-0.21,1.8-0.58,2.62-0.86
	c-0.43-2.45-0.8-4.81-1.28-7.15c-0.83-4.04,0.23-7.8,1.84-11.4c2.64-5.9,7.45-8.89,13.76-9.57c1.78-0.19,3.59-0.08,5.39-0.08
	c0.99,0,1.88,0.25,2.1,1.37c0.23,1.12-0.65,1.45-1.41,1.94c-1.68,1.05-3.49,2.01-4.9,3.37c-2.78,2.68-2.66,7.14,0.01,9.94
	c3.23,3.39,7.35,4.69,11.88,4.88c2.36,0.1,4.43,0.89,6.4,2.11c0.39,0.24,1.01,0.27,1.48,0.19c6.35-1.19,12.78-2.32,19.1-0.42
	c2.53,0.76,4.82,2.66,6.92,4.39c6.11,5.03,10.51,11.46,14.43,18.25c1.62,2.8,3.05,5.71,4.58,8.56c0.94,1.75,1.75,3.59,3.9,4.31
	c0.43,0.14,0.78,0.9,0.93,1.44c1.58,5.5,0.28,10.41-3.13,14.87c-0.22,0.29-0.44,0.57-0.68,0.84c-1.31,1.56-2.63,2.73-4.93,3.12
	c-10.45,1.8-20.37,5.41-29.9,9.98c-4.36,2.09-8.79,3.73-13.74,4.68c0.31,0.48,0.52,0.84,0.76,1.17c2.62,3.65,4.96,7.46,6.55,11.67
	c0.36,0.95,0.51,2.1,0.37,3.11c-0.84,6.19-2.84,11.95-6.64,16.99c-2.44,3.24-5.48,5.81-8.88,7.96c-0.43,0.27-1.09,0.39-1.6,0.31
	c-0.99-0.16-1.52,0.29-2.08,1.01c-4.24,5.41-9.24,10.04-14.51,14.44c-1.95,1.62-3.86,1.85-6.09,1.25c-3.85-1.03-6.88-3.35-9.48-6.24
	c-1.15-1.27,0.06-2.46,0.7-3.43c1.58-2.4,3.37-4.66,5.05-7c1.17-1.62,2.32-3.25,3.42-4.92c0.21-0.32,0.31-0.94,0.14-1.24
	c-3.19-5.68-6.44-11.32-9.65-16.98c-0.44-0.78-0.93-0.98-1.83-0.77c-8.22,1.87-16.56,2.62-24.97,2.89
	c-6.16,0.2-12.19-0.79-18.2-1.89c-2.01-0.37-3.31-0.22-4.78,1.48c-6.14,7.07-12.69,13.75-19.79,19.87
	c-2.54,2.19-5.17,4.28-7.84,6.31c-0.51,0.39-1.45,0.51-2.09,0.36c-3.48-0.83-6.24-2.77-8.19-5.81c-0.11-0.17-0.24-0.32-0.39-0.52
	c-2,1.25-4.06,2.39-5.95,3.76c-2.25,1.62-4.28,1.59-6.7,0.23c-3.9-2.18-7.19-4.86-9.25-8.9c-0.5-0.97-0.39-1.64,0.24-2.59
	c1.65-2.49,3.02-5.16,4.6-7.7c3.82-6.18,6.4-12.99,9.97-19.3c1.02-1.8,2.01-3.62,2.95-5.47c0.19-0.38,0.23-1.02,0.03-1.37
	c-2.06-3.66-2.88-7.64-3.29-11.76c-0.56-5.64-0.19-11.26,0.37-16.87c0.22-2.25,0.7-4.48,1.05-6.72c0.05-0.31,0.05-0.63,0.1-1.32
	c-0.66,0.86-1.18,1.41-1.54,2.05c-1.92,3.41-3.92,6.78-5.66,10.27c-3.83,7.7-9.3,13.72-17.17,17.4c-0.29,0.14-0.57,0.28-0.86,0.42
	c-2.28,1.07-4.27,2.34-5.86,4.49c-2.24,3.02-5.25,5.23-9.05,6.13c-2.41,0.57-4.34-0.16-5.81-2.1c-1.18-1.57-1.85-3.35-2.01-5.31
	c-0.19-2.31,0.99-4.4,3.42-5.4c4.01-1.66,8.12-2.73,12.46-1.1c0.32,0.12,0.82,0.07,1.11-0.11c2.31-1.42,4.66-2.8,6.88-4.37
	c5.27-3.73,8.8-8.89,11.42-14.68c2.28-5.04,4.78-9.93,8.44-14.16c2.62-3.04,5.78-5.4,9.13-7.52c2.05-1.29,3.78-2.87,5.39-4.68
	c5.42-6.07,11.99-10.26,20.06-11.87c4.28-0.85,8.58-0.9,12.89-0.26C134.05,110.78,134.67,110.85,135.39,110.94z M172.14,76.61
	c-0.11,0-0.21,0-0.32,0c0.05,0.07,0.1,0.14,0.15,0.21c0.72,1.28,1.41,2.58,2.18,3.84c0.15,0.25,0.59,0.4,0.91,0.44
	c3.56,0.42,6.81-0.94,10.16-1.79c2.96-0.75,5.32-2.26,7.29-4.65c3.25-3.95,6.75-7.69,10.04-11.6c0.96-1.14,1.57-2.56,2.32-3.87
	c0.51-0.89,0.33-1.79-0.38-2.4c-1.25-1.09-2.55-2.17-3.96-3.03c-1.96-1.18-2.75-0.95-4.26,0.8c-0.28,0.33-0.49,0.72-0.73,1.09
	c-0.49,0.76-0.48,1.52,0.13,2.2c0.55,0.61,1.16,1.19,1.77,1.75c0.58,0.53,0.99,1.12,0.49,1.88c-0.52,0.8-1.26,0.75-1.99,0.3
	c-0.5-0.31-0.97-0.68-1.44-1.01c-1.88,1.61-2.91,3.17-3.56,5.36c-0.13,0.42-0.28,0.83-0.45,1.24
	C187.87,73.83,180.85,78.58,172.14,76.61z M187.5,197.3c-0.1,0-0.21,0-0.31,0c0.04,0.09,0.07,0.19,0.11,0.28
	c0.11,0.21,0.21,0.43,0.32,0.63c2.89,5.15,5.79,10.31,8.69,15.45c0.63,1.12,0.68,2.13-0.16,3.21c-1.03,1.32-1.92,2.75-2.9,4.12
	c-2.11,2.95-4.23,5.9-6.34,8.84c1.88,2.57,6.02,5.03,9.09,5.3c0.57,0.05,1.28-0.15,1.74-0.5c5.26-4.02,10.03-8.55,14.22-13.68
	c0.32-0.39,0.63-0.8,0.84-1.06c-1.32-1.4-2.56-2.69-3.76-4c-1.01-1.09-1.48-2.26-0.43-3.63c0.31-0.4,0.47-0.93,0.65-1.41
	c0.84-2.21,1.67-4.43,2.48-6.61c-3.57-0.93-6.95-1.72-10.28-2.69C196.78,200.21,192.15,198.73,187.5,197.3z M189.76,195.16
	c0.21,0.1,0.47,0.26,0.75,0.35c7.4,2.41,14.82,4.76,22.48,6.25c1.56,0.3,1.97,0.93,1.42,2.45c-1.09,3-2.25,5.97-3.35,8.97
	c-0.12,0.33-0.2,0.83-0.03,1.07c1.03,1.49,2.24,2.84,3.97,3.53c0.9,0.36,1.76,0.62,2.8-0.07c7.4-4.92,11.51-11.92,13.12-20.5
	c0.24-1.29,0.47-2.79,0.05-3.97c-1.97-5.61-5.34-10.51-9.08-14.99c-4.75-5.67-10.81-9.83-17.92-12.21c-2.04-0.68-4.16-1.1-6.25-1.63
	c-0.8-0.2-1.35-0.64-1.17-1.51c0.18-0.86,0.87-1.08,1.67-0.98c0.55,0.07,1.11,0.18,1.65,0.29c9.03,1.89,16.5,6.56,22.82,13.11
	c1.45,1.5,2.71,1.78,4.68,1.37c4.63-0.97,8.81-3,13.06-4.95c8.76-4.03,17.82-7.27,27.3-9.14c2.33-0.46,4.21-1.21,5.65-3.28
	c2.5-3.58,3.84-7.34,2.84-11.71c-0.09-0.38-0.34-0.84-0.65-1.02c-1.79-1.02-2.87-2.62-3.81-4.36c-1.88-3.48-3.63-7.03-5.62-10.44
	c-3.8-6.48-8.17-12.54-14.16-17.22c-1.49-1.16-3.14-2.27-4.89-2.93c-4.21-1.58-8.6-0.93-12.93-0.46c-1.33,0.14-2.64,0.41-4.12,0.64
	c0.24,0.42,0.37,0.65,0.5,0.88c3.57,6.38,2.56,14.18-5.36,17.78c-3.82,1.74-7.8,1.55-11.76,0.72c-8.42-1.76-14.93-6.09-18.62-14.12
	c-0.13-0.28-0.31-0.53-0.47-0.78c-1.03,0.35-1.96,0.7-2.92,0.97c-0.74,0.2-1.22,0.51-1.54,1.29c-0.51,1.23-1.51,1.98-2.84,2.35
	c-2.71,0.75-5.24,0.39-7.57-1.13c-2.08-1.36-4.28-0.57-6.61-0.74c0.72,1.76,1.37,3.25,1.93,4.78c0.98,2.66-0.16,5.32-2.71,6.49
	c-0.33,0.15-0.65,0.31-0.97,0.46c-8.15,3.96-16.77,6.61-25.49,8.98c-0.35,0.09-0.84,0.05-1.14-0.13c-4.33-2.53-4.63-7.15-2.3-9.87
	c2.66-3.1,5.88-5.52,9.24-7.77c0.37-0.25,0.73-0.51,1.3-0.9c-3.33-1.18-6.42-2.13-9.4-3.37c-1.82-0.75-3.45-1.94-5.17-2.92
	c-0.63-0.36-1.25-0.85-1.93-1c-6.74-1.46-13.42-1.41-19.95,1.02c-6.84,2.55-12.07,7.13-16.39,12.95
	c-5.11,6.88-7.61,14.62-8.26,23.07c-0.39,5.06-0.82,10.12-0.28,15.2c0.38,3.62,0.9,7.24,2.85,10.39c1.06,1.71,1.03,3.17-0.01,4.76
	c-0.31,0.46-0.56,0.97-0.83,1.46c-5.51,9.97-10,20.49-16.15,30.11c-0.49,0.77-0.26,1.33,0.14,1.96c2.17,3.4,5.33,5.56,8.96,7.09
	c0.35,0.15,0.94,0.02,1.31-0.18c1.39-0.78,2.75-1.61,4.09-2.48c11.18-7.22,21.23-15.87,31.21-24.61c0.1-0.09,0.14-0.24,0.25-0.45
	c-0.8-0.25-1.53-0.45-2.24-0.69c-0.85-0.28-1.67-0.69-1.36-1.75c0.32-1.06,1.23-0.99,2.09-0.72c6.98,2.2,14.08,3.91,21.33,4.96
	c4.07,0.59,8.18,1.26,12.27,1.27c6.83,0.03,13.65-0.53,20.42-1.64c8.59-1.42,16.91-3.73,24.86-7.3c1.55-0.7,2.42-0.65,2.69,0.25
	c0.4,1.37-0.71,1.72-1.62,2.08C197.65,192.1,193.72,193.61,189.76,195.16z M164.1,97.03c-1.28-2.58-2.66-5.37-4.03-8.16
	c-0.51-1.04-1.02-2.08-1.5-3.14c-0.33-0.74-0.28-1.46,0.52-1.85c0.82-0.4,1.36,0.09,1.78,0.76c0.11,0.17,0.17,0.36,0.26,0.54
	c1.28,2.62,2.54,5.25,3.86,7.85c3.6,7.13,7.26,14.24,11.92,20.77c1.17,1.64,2.5,3.12,4.32,4.08c1.75,0.92,3.56,1.15,5.42,0.4
	c0.85-0.34,1.29-1.03,1.02-1.91c-0.35-1.13-0.71-2.32-1.34-3.31c-3.65-5.75-6.83-11.74-9.45-18.01c-1.67-4.01-2.98-8.17-4.66-12.18
	c-0.79-1.89-1.88-3.73-3.18-5.31c-2.5-3.03-6.53-3.5-9.69-1.2c-3.22,2.35-6.44,4.75-9.41,7.41c-5.89,5.27-10.28,11.57-12.17,19.39
	c-1.45,6.01,0.7,10.22,6.17,12.14c2.86,1,5.73,1.95,8.56,3.03c2.39,0.91,4.73,1.94,7.06,2.98c0.75,0.33,1.23,1,0.76,1.86
	c-0.43,0.79-1.16,0.75-1.88,0.42c-0.73-0.33-1.43-0.72-2.18-0.99c-0.32-0.12-0.82-0.12-1.09,0.05c-3.97,2.48-7.85,5.08-10.96,8.66
	c-0.86,0.99-1.03,2.02-0.8,3.21c0.36,1.85,1.66,2.73,3.42,2.2c4.24-1.27,8.52-2.46,12.68-3.96c3.79-1.36,7.46-3.04,11.16-4.65
	c1.83-0.8,2.15-1.66,1.6-3.54c-0.13-0.46-0.3-0.91-0.48-1.35c-3.17-7.9-8.81-13.61-15.96-17.95c-1.91-1.16-3.93-2.13-5.9-3.19
	c-0.73-0.4-1.28-0.96-0.84-1.84c0.43-0.86,1.2-0.82,1.96-0.45c0.97,0.46,1.95,0.93,2.9,1.44c1.33,0.71,2.63,1.46,3.62,2.01
	C159.8,101.11,161.87,99.15,164.1,97.03z M201.44,122.09c-0.1,0.12-0.21,0.23-0.31,0.35c0.34,0.19,0.74,0.32,1.02,0.58
	c3.01,2.71,6.53,4.42,10.44,5.36c3.36,0.81,6.79,1.42,10.16,0.25c3.41-1.19,6.38-3.04,7.01-7.04c0.85-5.39-1.44-9.46-6.56-11.37
	c-1.37-0.51-2.97-0.43-4.47-0.61c-4.37-0.53-8.27-2.07-11.42-5.24c-4.27-4.31-3.99-10.78,0.62-14.74c0.47-0.4,0.95-0.8,1.51-1.26
	c-4.86-0.28-10.43,2.25-12.74,7.25c-0.93,2.01-1.38,4.23-2.11,6.33c-0.36,1.04,0.08,1.42,1.01,1.66c1.87,0.48,3.71,0.39,5.55-0.11
	c0.8-0.21,1.47-0.02,1.73,0.82c0.26,0.84-0.2,1.4-0.97,1.67c-0.6,0.21-1.23,0.43-1.85,0.45c-1.76,0.06-3.53,0.02-5.37,0.02
	c0.01-0.05-0.04,0.06-0.03,0.17c0.5,4.25,1.6,8.31,3.9,11.96c0.25,0.4,0.97,0.74,1.46,0.73c2.34-0.03,4.61-0.4,6.55-1.89
	c0.7-0.54,1.49-0.76,2.11,0.06c0.62,0.83,0.19,1.58-0.53,2.05c-0.92,0.61-1.9,1.19-2.93,1.57C204,121.56,202.7,121.78,201.44,122.09
	z M189.03,61.6c0.08-7.11-5.66-12.89-12.92-13c-7.03-0.11-12.86,5.74-12.93,12.98c-0.07,6.99,5.69,12.83,12.74,12.93
	C183.12,74.62,188.94,68.88,189.03,61.6z M133.21,196.73c-2.3-0.58-4.37-1.13-6.45-1.6c-0.29-0.07-0.74,0.18-0.99,0.41
	c-8.58,7.65-17.35,15.09-26.69,21.81c-0.6,0.43-0.67,0.74-0.28,1.33c1.39,2.12,3.28,3.59,5.68,4.34c0.44,0.14,1.12-0.01,1.51-0.28
	c1.28-0.89,2.49-1.87,3.69-2.86c6.87-5.63,13.15-11.88,19.21-18.37C130.31,199.99,131.69,198.41,133.21,196.73z M53.64,169.82
	c-2.21,0.61-4.52,1.16-6.78,1.89c-1.2,0.39-2.05,1.29-2.03,2.67c0.02,1.78,0.61,3.42,1.9,4.63c0.54,0.51,1.55,0.95,2.22,0.82
	c4.21-0.82,7.11-3.55,9.47-6.95c0.57-0.82,0.22-1.51-0.59-1.81C56.54,170.58,55.19,170.27,53.64,169.82z M60.85,170.26
	c0.05,0.11,0.09,0.22,0.14,0.33c0.17-0.02,0.37,0.01,0.52-0.07c1.22-0.6,2.41-1.24,3.64-1.83c6.73-3.19,11.54-8.32,14.96-14.84
	c1.54-2.94,2.99-5.92,4.61-8.81c1.69-3.01,3.56-5.9,6.63-7.75c0.17-0.1,0.38-0.22,0.45-0.38c0.77-1.76,1.52-3.53,2.28-5.3
	c-0.09-0.08-0.18-0.16-0.27-0.23c-0.91,0.71-1.85,1.38-2.72,2.14c-4.79,4.15-7.9,9.45-10.54,15.12c-1.39,3-2.98,5.93-4.75,8.72
	c-3.17,5.01-7.66,8.64-12.77,11.54C62.28,169.32,61.57,169.8,60.85,170.26z M160.11,104.83c0.16,0.2,0.2,0.28,0.26,0.32
	c4.14,3.01,7.75,6.54,10.57,10.84c0.14,0.21,0.4,0.49,0.61,0.5c1.28,0.05,2.57,0.02,3.81,0.02c-3.43-5.73-6.72-11.22-10.05-16.78
	C163.21,101.01,161.38,102.6,160.11,104.83z"/>
<path class="st0" d="M78.88,96.43c15.07,0,30.15,0,45.22,0c0.52,0,1.1-0.08,1.54,0.12c0.4,0.18,0.88,0.69,0.89,1.07
	c0.01,0.38-0.44,0.87-0.82,1.13c-0.29,0.2-0.77,0.14-1.17,0.14c-30.42,0.01-60.85,0-91.27,0c-0.36,0-0.81,0.07-1.05-0.12
	c-0.39-0.31-0.87-0.78-0.89-1.2c-0.02-0.34,0.52-0.84,0.92-1.04c0.4-0.19,0.94-0.1,1.42-0.1C48.73,96.43,63.8,96.43,78.88,96.43z"/>
<path class="st0" d="M53.94,232.97c-10.48,0-20.95,0-31.43,0c-0.44,0-0.96,0.12-1.3-0.07c-0.49-0.28-0.84-0.79-1.25-1.2
	c0.42-0.41,0.79-0.88,1.27-1.19c0.26-0.17,0.7-0.06,1.06-0.06c21.11,0,42.22,0,63.33,0c1.69,0,2.52,0.44,2.36,1.33
	c-0.24,1.38-1.41,1.18-2.38,1.18C75.05,232.97,64.49,232.97,53.94,232.97z"/>
<path class="st0" d="M41.22,123.35c9.88,0,19.76,0,29.64,0c0.44,0,0.97-0.12,1.3,0.08c0.48,0.29,0.82,0.81,1.22,1.23
	c-0.4,0.38-0.76,0.82-1.22,1.11c-0.23,0.15-0.62,0.06-0.94,0.06c-20.08,0-40.16,0-60.24,0c-0.2,0-0.4,0-0.6,0
	c-0.79-0.02-1.5-0.27-1.53-1.17c-0.03-0.97,0.7-1.29,1.54-1.3c2.6-0.02,5.2-0.01,7.8-0.01C25.86,123.35,33.54,123.35,41.22,123.35z"
	/>
<path class="st0" d="M38.64,195.4c8.64,0,17.27,0,25.91,0c0.48,0,1.02-0.07,1.41,0.13c0.4,0.21,0.87,0.7,0.88,1.08
	c0.01,0.38-0.44,0.89-0.82,1.13c-0.33,0.21-0.85,0.16-1.28,0.16c-17.39,0.01-34.78,0.01-52.18,0c-0.32,0-0.72,0.09-0.94-0.07
	c-0.46-0.34-0.82-0.81-1.23-1.22c0.42-0.4,0.79-0.88,1.28-1.17c0.3-0.18,0.78-0.06,1.18-0.06C21.44,195.4,30.04,195.4,38.64,195.4z"
	/>
<path class="st0" d="M171.97,76.82c-0.05-0.07-0.1-0.14-0.15-0.21c0.11,0,0.21,0,0.32,0C172.08,76.68,172.03,76.75,171.97,76.82z"/>
<path class="st0" d="M187.29,197.58c-0.04-0.09-0.07-0.19-0.11-0.28c0.1,0,0.21,0,0.31,0C187.43,197.39,187.36,197.49,187.29,197.58
	z"/>
</svg>
