<?xml version="1.0" encoding="UTF-8" standalone="no"?>
<!-- Created with Inkscape (http://www.inkscape.org/) -->

<svg
   width="200px"
   height="200px"
   viewBox="0 0 200 200"
   version="1.1"
   id="SVGRoot"
   sodipodi:docname="icon 3.svg"
   inkscape:version="1.1.1 (3bf5ae0d25, 2021-09-20)"
   xmlns:inkscape="http://www.inkscape.org/namespaces/inkscape"
   xmlns:sodipodi="http://sodipodi.sourceforge.net/DTD/sodipodi-0.dtd"
   xmlns="http://www.w3.org/2000/svg"
   xmlns:svg="http://www.w3.org/2000/svg">
  <sodipodi:namedview
     id="namedview21682"
     pagecolor="#505050"
     bordercolor="#eeeeee"
     borderopacity="1"
     inkscape:pageshadow="0"
     inkscape:pageopacity="0"
     inkscape:pagecheckerboard="0"
     inkscape:document-units="px"
     showgrid="false"
     inkscape:zoom="1.6025373"
     inkscape:cx="22.509126"
     inkscape:cy="136.55008"
     inkscape:window-width="1440"
     inkscape:window-height="837"
     inkscape:window-x="-8"
     inkscape:window-y="-8"
     inkscape:window-maximized="1"
     inkscape:current-layer="layer1"
     inkscape:rotation="-1" />
  <defs
     id="defs21677" />
  <g
     inkscape:label="Layer 1"
     inkscape:groupmode="layer"
     id="layer1">
    <path
       style="fill:#8a8584;stroke:none;stroke-width:1px;stroke-linecap:butt;stroke-linejoin:miter;stroke-opacity:1;fill-opacity:1"
       d="M 73.774408,65.515692 C 58.377055,85.23657 48.396966,91.105558 48.396966,91.105558 L 19.33137,109.60275 c 0,0 -7.822602,11.40376 -3.884652,15.18919 3.93795,3.78543 1.031078,8.17238 12.512652,7.17049 11.481574,-1.0019 39.774439,-6.93002 39.774439,-6.93002 0,0 20.075731,0.17704 25.554077,4.41732 C 98.766232,133.69 73.774408,65.515692 73.774408,65.515692 Z"
       id="path24060" />
    <ellipse
       style="fill:#b23718;fill-opacity:1;stroke:#676767;stroke-width:1.88804;stroke-linejoin:round;stroke-opacity:1;paint-order:markers fill stroke"
       id="path23467"
       cx="62.900261"
       cy="133.50624"
       rx="28.403038"
       ry="47.504917"
       transform="matrix(0.84936149,-0.52781157,0.37487963,0.92707349,0,0)" />
    <path
       style="fill:#948787;stroke:none;stroke-width:1px;stroke-linecap:butt;stroke-linejoin:miter;stroke-opacity:1;fill-opacity:1"
       d="M 80.603948,90.77909 C 103.67992,85.576828 103.67992,85.576828 103.67992,85.576828 L 109.26407,95.968527 86.7022,108.99463 Z"
       id="path21834" />
    <ellipse
       style="fill:#922104;fill-opacity:1;stroke:none;stroke-width:2.36447;stroke-linejoin:round;paint-order:markers fill stroke"
       id="path22751"
       cx="65.742851"
       cy="123.61473"
       rx="3.9537327"
       ry="6.3972735"
       transform="rotate(-21.909281)" />
    <path
       style="fill:#7e7e7e;stroke:none;stroke-width:1px;stroke-linecap:butt;stroke-linejoin:miter;stroke-opacity:1;fill-opacity:1"
       d="m 36.445095,130.74465 4.626245,6.12514 c 0,0 2.795556,1.42873 10.600886,0.87353 7.80533,-0.55521 9.86355,-3.96925 9.86355,-3.96925 l -0.711198,-7.8067 z"
       id="path26881" />
    <path
       style="fill:#7e7e7e;fill-opacity:1;stroke:none;stroke-width:1px;stroke-linecap:butt;stroke-linejoin:miter;stroke-opacity:1"
       d="m 45.124499,137.21754 9.615926,24.11014 8.121451,-1.02044 -7.426473,-24.71486 z"
       id="path28533" />
    <path
       style="fill:#757170;stroke:none;stroke-width:1px;stroke-linecap:butt;stroke-linejoin:miter;stroke-opacity:1;fill-opacity:1"
       d="m 55.435403,135.59238 3.4333,-0.12573 6.679506,20.96407 -2.686333,3.87652 -3.248414,-3.14882 z"
       id="path28714" />
    <rect
       style="fill:#d13710;fill-opacity:1;stroke:none;stroke-width:2;stroke-linejoin:round;stroke-opacity:1;paint-order:markers fill stroke"
       id="rect28905"
       width="1.9908116"
       height="4.2297907"
       x="20.074215"
       y="151.90823"
       transform="rotate(-14.526404)" />
    <rect
       style="fill:#070707;fill-opacity:1;stroke:none;stroke-width:2;stroke-linejoin:round;stroke-opacity:1;paint-order:markers fill stroke"
       id="rect29331"
       width="50.296921"
       height="7.0448637"
       x="93.828415"
       y="103.97767"
       transform="rotate(-30.600844)" />
    <rect
       style="fill:#070707;fill-opacity:1;stroke:none;stroke-width:2;stroke-linejoin:round;stroke-opacity:1;paint-order:markers fill stroke"
       id="rect29331-1"
       width="50.296921"
       height="7.0448637"
       x="126.19259"
       y="108.22485"
       transform="rotate(-12.687681)" />
    <rect
       style="fill:#070707;fill-opacity:1;stroke:none;stroke-width:2;stroke-linejoin:round;stroke-opacity:1;paint-order:markers fill stroke"
       id="rect29331-3"
       width="50.296921"
       height="7.0448637"
       x="171.00972"
       y="87.452248"
       transform="rotate(11.998071)" />
  </g>
</svg>
