<?xml version="1.0" encoding="UTF-8" standalone="no"?>
<!-- Created with Inkscape (http://www.inkscape.org/) -->

<svg
   width="200px"
   height="200px"
   viewBox="0 0 200 200"
   version="1.1"
   id="SVGRoot"
   sodipodi:docname="icon 2.svg"
   inkscape:version="1.1.1 (3bf5ae0d25, 2021-09-20)"
   xmlns:inkscape="http://www.inkscape.org/namespaces/inkscape"
   xmlns:sodipodi="http://sodipodi.sourceforge.net/DTD/sodipodi-0.dtd"
   xmlns="http://www.w3.org/2000/svg"
   xmlns:svg="http://www.w3.org/2000/svg">
  <sodipodi:namedview
     id="namedview829"
     pagecolor="#505050"
     bordercolor="#eeeeee"
     borderopacity="1"
     inkscape:pageshadow="0"
     inkscape:pageopacity="0"
     inkscape:pagecheckerboard="0"
     inkscape:document-units="px"
     showgrid="false"
     inkscape:zoom="3.2050746"
     inkscape:cx="96.782714"
     inkscape:cy="58.605351"
     inkscape:window-width="1440"
     inkscape:window-height="837"
     inkscape:window-x="-8"
     inkscape:window-y="-8"
     inkscape:window-maximized="1"
     inkscape:current-layer="layer1" />
  <defs
     id="defs824" />
  <g
     inkscape:label="Layer 1"
     inkscape:groupmode="layer"
     id="layer1">
    <path
       style="fill:#595959;fill-opacity:1;stroke:none;stroke-width:1px;stroke-linecap:butt;stroke-linejoin:miter;stroke-opacity:1"
       d="m 126.97406,148.49254 c -6.3055,6.25284 -6.3055,6.25284 -6.3055,6.25284 l 28.91836,28.64618 6.69503,-6.48764 z"
       id="path1906" />
    <path
       style="fill:#e4ad28;fill-opacity:1;stroke:none;stroke-width:1px;stroke-linecap:butt;stroke-linejoin:miter;stroke-opacity:1"
       d="m 155.10973,175.81427 c -6.30456,6.72085 -6.69503,6.48764 -6.69503,6.48764 0,0 1.02818,7.01805 1.96561,7.71818 0.93743,0.70012 7.57587,4.8208 9.36942,4.58317 1.79356,-0.23762 7.40145,-4.30502 7.55132,-7.34737 0.14986,-3.04236 -3.52595,-7.87104 -4.4648,-9.27317 -0.93885,-1.40213 -7.72652,-2.16845 -7.72652,-2.16845 z"
       id="path1109" />
    <path
       style="fill:#e4ad28;stroke:none;stroke-width:1px;stroke-linecap:butt;stroke-linejoin:miter;stroke-opacity:1;fill-opacity:1"
       d="m 83.932697,156.14554 c 20.820953,-2.69407 24.863163,-9.56635 24.863163,-9.56635 l 11.44366,-11.17731 c 0,0 8.24986,-9.06482 8.46859,-16.6314 0.21873,-7.56658 0.21905,-7.41058 0.21905,-7.41058 l 2.11044,2.17978 c 0,0 3.08533,21.44418 -4.22867,30.42911 -7.31401,8.98493 -17.91209,13.9984 -17.91209,13.9984 0,0 -23.317146,2.62111 -24.964143,-1.82165"
       id="path3176"
       sodipodi:nodetypes="cccsccscc" />
    <path
       style="fill:#e4ad28;stroke:none;stroke-width:1px;stroke-linecap:butt;stroke-linejoin:miter;stroke-opacity:1;fill-opacity:1"
       d="m 115.75276,153.89729 4.9158,0.84809 6.3055,-6.25284 0.22361,-5.14855 z"
       id="path3724" />
    <path
       style="fill:#d0d0d0;stroke:none;stroke-width:1px;stroke-linecap:butt;stroke-linejoin:miter;stroke-opacity:1;fill-opacity:1"
       d="M 119.98649,136.12504 27.875946,44.014501 3.4654196,29.921078 17.911534,54.942481 108.96729,145.99823 Z"
       id="path3972" />
    <rect
       style="fill:#d0d0d0;fill-opacity:1;stroke:#737373;stroke-width:2.32882;stroke-linejoin:round;stroke-opacity:1;paint-order:markers fill stroke"
       id="rect21496"
       width="16.868225"
       height="29.967407"
       x="143.01112"
       y="-39.683834"
       transform="matrix(0.87138578,0.49059843,-0.50831288,0.86117246,0,0)" />
    <circle
       style="fill:#d0d0d0;fill-opacity:1;stroke:#737373;stroke-width:2.19418;stroke-linejoin:round;stroke-opacity:1;paint-order:markers fill stroke"
       id="path6765"
       cx="126.83115"
       cy="83.902588"
       r="34.931335" />
    <path
       style="fill:none;stroke:#737373;stroke-width:1px;stroke-linecap:butt;stroke-linejoin:miter;stroke-opacity:1"
       d="M 3.4654196,29.921078 114.59669,141.05235"
       id="path5591" />
    <path
       style="fill:#db0eda;fill-opacity:1;stroke:#db0eda;stroke-width:1px;stroke-linecap:butt;stroke-linejoin:miter;stroke-opacity:1"
       d="m 94.172073,77.502246 c 12.143537,-5.051796 22.275737,3.791829 22.275737,3.791829 0,0 6.9381,6.190251 12.90283,1.899184 5.96473,-4.291068 17.87804,-4.158688 17.87804,-4.158688 0,0 2.31713,-0.32664 5.73409,1.113729 3.41696,1.440369 7.82243,5.199093 7.82243,5.199093 0,0 0.1679,28.460467 -30.61502,31.823077 -30.782907,3.3626 -36.244476,-25.769533 -36.244476,-25.769533 0,0 -0.973788,-10.260698 -0.418558,-12.245262 0.555229,-1.984564 0.664927,-1.653429 0.664927,-1.653429 z"
       id="path11197" />
    <ellipse
       style="fill:#d0d0d0;fill-opacity:1;stroke:#737373;stroke-width:2.18343;stroke-linejoin:round;stroke-opacity:1;paint-order:markers fill stroke"
       id="path21356"
       cx="140.79359"
       cy="-52.61713"
       rx="12.269452"
       ry="8.4097414"
       transform="matrix(0.83900513,0.54412351,-0.66718619,0.74489099,0,0)" />
    <path
       style="fill:#ac7200;fill-opacity:1;stroke:none;stroke-width:1px;stroke-linecap:butt;stroke-linejoin:miter;stroke-opacity:1"
       d="m 148.86162,23.286185 c -2.28097,10.213963 -3.14057,11.070387 -3.14057,11.070387 0,0 0.69594,3.277349 6.93112,5.940949 6.23518,2.663599 7.56366,1.340036 7.56366,1.340036 0,0 4.76963,-6.23128 6.25266,-6.774543 1.48304,-0.543262 -7.79823,-1.028464 -7.79823,-1.028464 0,0 -6.38816,-4.301915 -8.0984,-7.425139 -1.71024,-3.123224 -1.71024,-3.123226 -1.71024,-3.123226 z"
       id="path17989" />
    <ellipse
       style="fill:#c88400;fill-opacity:1;stroke:none;stroke-width:2;stroke-linejoin:round;stroke-opacity:1;paint-order:markers fill stroke"
       id="path18965"
       cx="154.37984"
       cy="-45.76926"
       rx="11.613071"
       ry="4.9356036"
       transform="rotate(26.775641)" />
    <ellipse
       style="fill:#775107;fill-opacity:1;stroke:none;stroke-width:2;stroke-linejoin:round;stroke-opacity:1;paint-order:markers fill stroke"
       id="path19843"
       cx="153.84978"
       cy="25.401464"
       rx="2.5705707"
       ry="1.8767965" />
    <ellipse
       style="fill:#775107;fill-opacity:1;stroke:none;stroke-width:2;stroke-linejoin:round;stroke-opacity:1;paint-order:markers fill stroke"
       id="path20329"
       cx="151.29848"
       cy="-40.002045"
       rx="2.9997218"
       ry="1.79959"
       transform="rotate(27.583983)" />
    <ellipse
       style="fill:#775107;fill-opacity:1;stroke:none;stroke-width:2;stroke-linejoin:round;stroke-opacity:1;paint-order:markers fill stroke"
       id="path20331"
       cx="157.49884"
       cy="-42.819836"
       rx="2.9612992"
       ry="1.4875131"
       transform="rotate(26.029592)" />
  </g>
</svg>
