<?xml version="1.0" encoding="UTF-8" standalone="no"?>
<!-- Created with Inkscape (http://www.inkscape.org/) -->

<svg
   width="200.0px"
   height="200.0px"
   viewBox="0 0 200.0 200.0"
   version="1.1"
   id="SVGRoot"
   sodipodi:docname="Joint.svg"
   inkscape:version="1.1.1 (3bf5ae0d25, 2021-09-20)"
   xmlns:inkscape="http://www.inkscape.org/namespaces/inkscape"
   xmlns:sodipodi="http://sodipodi.sourceforge.net/DTD/sodipodi-0.dtd"
   xmlns="http://www.w3.org/2000/svg"
   xmlns:svg="http://www.w3.org/2000/svg">
  <sodipodi:namedview
     id="namedview829"
     pagecolor="#505050"
     bordercolor="#eeeeee"
     borderopacity="1"
     inkscape:pageshadow="0"
     inkscape:pageopacity="0"
     inkscape:pagecheckerboard="0"
     inkscape:document-units="px"
     showgrid="true"
     inkscape:zoom="2.8284271"
     inkscape:cx="96.520075"
     inkscape:cy="105.88924"
     inkscape:window-width="1440"
     inkscape:window-height="837"
     inkscape:window-x="-8"
     inkscape:window-y="-8"
     inkscape:window-maximized="1"
     inkscape:current-layer="layer1">
    <inkscape:grid
       type="xygrid"
       id="grid892" />
  </sodipodi:namedview>
  <defs
     id="defs824" />
  <g
     inkscape:label="Layer 1"
     inkscape:groupmode="layer"
     id="layer1">
    <path
       style="fill:#ffffff;stroke-width:3.77953;paint-order:markers fill stroke"
       d="M 51.1875,116.35417 C 50.809375,115.97604 50.5,111.47781 50.5,106.3581 V 97.049543 L 34.25,96.774771 18,96.5 v -9 -9 L 34.25,78.225229 50.5,77.950457 v -9.475228 c 0,-8.363737 0.205284,-9.473266 1.75,-9.458492 2.167364,0.02073 36.634928,26.397329 37.053239,28.35531 0.180674,0.845675 -7.013846,7.0191 -17.799951,15.273663 -19.335366,14.79727 -19.270646,14.7536 -20.315788,13.70846 z"
       id="path1659" />
    <path
       style="fill:none;stroke-width:1.88976;paint-order:markers fill stroke"
       d="m 128.09918,186.87251 c -1.92502,-1.54256 -2.26332,-3.59447 -2.28717,-13.87251 -0.0112,-4.8125 -0.0297,-9.48125 -0.0412,-10.375 L 125.75,161 H 98.538461 71.326923 L 69.788461,159.46154 68.25,157.92307 v -19.25 -19.25 l 1.461538,-1.46153 c 1.168954,-1.16896 1.894641,-1.46001 3.625,-1.45389 2.348257,0.008 2.662877,0.15333 4.163462,1.91901 0.939654,1.10566 1.015086,2.10136 1.25,16.5 L 79,150.25 l 23.375,0.12994 c 12.85625,0.0715 23.38141,-0.0411 23.38925,-0.25 0.008,-0.20897 0.0641,-24.00494 0.125,-52.87994 0.10809,-51.241752 0.13418,-52.530835 1.08859,-53.786587 0.53782,-0.707622 1.43782,-1.507692 2,-1.777933 0.56219,-0.270241 3.49716,-1.80511 6.52216,-3.410819 11.59889,-6.156844 14.10014,-7.486702 17.25,-9.171431 1.7875,-0.95606 4.09375,-2.163154 5.125,-2.68243 1.03125,-0.519277 1.875,-1.051388 1.875,-1.18247 C 159.75,25.107248 141.525,25 119.25,25 h -40.5 v 15.017591 c 0,16.464096 -0.03966,16.701558 -3.04942,18.257965 -2.14379,1.108597 -3.743498,0.875713 -5.683182,-0.827352 L 68.25,55.896408 V 36.541749 17.187091 L 69.782831,15.718546 71.315662,14.25 h 56.758178 56.75819 l 1.4641,1.638613 1.4641,1.638614 -0.13012,70.514988 -0.13011,70.514985 -1.25,0.96576 c -0.6875,0.53116 -2.375,1.56061 -3.75,2.28765 -1.375,0.72705 -4.6375,2.44546 -7.25,3.81869 -2.6125,1.37324 -6.325,3.33564 -8.25,4.36089 -1.925,1.02526 -6.2,3.27957 -9.5,5.00958 -3.3,1.73002 -7.4625,3.93185 -9.25,4.89296 -16.34102,8.78635 -17.42696,9.16249 -20.15082,6.97978 z"
       id="path1698" />
    <path
       style="fill:#ffffff;stroke-width:1.88976;paint-order:markers fill stroke"
       d="m 129.25695,187.12422 c -2.84362,-1.42622 -2.99142,-2.15295 -2.99958,-14.74922 L 126.25,161 99.625,160.99922 c -24.346588,-7.1e-4 -26.774755,-0.0756 -28.375,-0.875 -3.02603,-1.51167 -3.142391,-2.44863 -2.840031,-22.86839 L 69,120 c 0.37565,-0.7292 1.05323,-1.51205 1.05323,-1.51205 2.042995,-2.93298 6.137084,-2.42525 7.97961,0.55602 0.946754,1.53188 0.71716,2.67499 0.71716,16.64494 v 14.82088 l 23.625,-0.1299 L 126,150.25 l 0.25,-52.943385 0.25,-52.94338 1.75,-1.466706 c 0.9625,-0.806689 4.1125,-2.702204 7,-4.212256 19.30164,-10.094024 24.5,-12.966397 24.5,-13.537583 0,-0.523598 -7.70886,-0.64669 -40.5,-0.64669 h -40.5 v 15.143887 15.143887 c 0,0 -1.21875,1.452404 -1.375,1.639904 -0.864891,1.03787 -1.911947,1.711145 -3.429077,1.912434 -1.783321,0.236607 -2.121806,-0.125764 -3.75,-1.245147 -0.5,-0.34375 -1.477173,-1.142678 -1.695923,-1.517678 l 0.04219,-19.117353 0.04219,-19.117353 1.590701,-1.42129 1.5907,-1.421291 h 56.398559 56.39857 l 1.46854,1.532651 1.46855,1.532651 0.1634,63.592348 c 0.0899,34.97579 0.009,66.60738 -0.18024,70.29242 -0.31362,6.11463 -0.44383,6.79181 -1.49018,7.75 -0.6306,0.57746 -4.93699,3.05133 -9.56976,5.49748 -4.63277,2.44616 -14.16072,7.49223 -21.17322,11.2135 -15.52616,8.23914 -23.08655,12.08688 -23.75,12.08717 -0.275,1.2e-4 -1.28437,-0.39318 -2.24305,-0.874 z"
       id="path3063"
       sodipodi:nodetypes="sscssscssscccccsssscccssscccccccccccsssss" />
  </g>
</svg>
