<?xml version="1.0" encoding="UTF-8" standalone="no"?>
<!-- Created with Inkscape (http://www.inkscape.org/) -->

<svg
   width="200.0px"
   height="200.0px"
   viewBox="0 0 200.0 200.0"
   version="1.1"
   id="SVGRoot"
   sodipodi:docname="Leave.svg"
   inkscape:version="1.1.1 (3bf5ae0d25, 2021-09-20)"
   xmlns:inkscape="http://www.inkscape.org/namespaces/inkscape"
   xmlns:sodipodi="http://sodipodi.sourceforge.net/DTD/sodipodi-0.dtd"
   xmlns="http://www.w3.org/2000/svg"
   xmlns:svg="http://www.w3.org/2000/svg">
  <sodipodi:namedview
     id="namedview829"
     pagecolor="#505050"
     bordercolor="#eeeeee"
     borderopacity="1"
     inkscape:pageshadow="0"
     inkscape:pageopacity="0"
     inkscape:pagecheckerboard="0"
     inkscape:document-units="px"
     showgrid="true"
     inkscape:zoom="2.8284271"
     inkscape:cx="96.520075"
     inkscape:cy="105.88924"
     inkscape:window-width="1440"
     inkscape:window-height="837"
     inkscape:window-x="-8"
     inkscape:window-y="-8"
     inkscape:window-maximized="1"
     inkscape:current-layer="layer1">
    <inkscape:grid
       type="xygrid"
       id="grid892" />
  </sodipodi:namedview>
  <defs
     id="defs824" />
  <g
     inkscape:label="Layer 1"
     inkscape:groupmode="layer"
     id="layer1">
    <path
       style="fill:#ffffff;stroke-width:3.77953;paint-order:markers fill stroke"
       d="M 140.6875,113.40371 C 140.30937,113.02558 140,108.52735 140,103.40764 V 94.099086 L 123.75,93.824314 107.5,93.549543 v -9 -9 L 123.75,75.274772 140,75 v -9.475228 c 0,-8.363737 0.20528,-9.473266 1.75,-9.458492 2.16736,0.02073 36.63493,26.397329 37.05324,28.35531 0.18067,0.845675 -7.01385,7.0191 -17.79995,15.27366 -19.33537,14.79727 -19.27065,14.7536 -20.31579,13.70846 z"
       id="path1659" />
    <path
       style="fill:none;stroke-width:1.88976;paint-order:markers fill stroke"
       d="m 128.09918,186.87251 c -1.92502,-1.54256 -2.26332,-3.59447 -2.28717,-13.87251 -0.0112,-4.8125 -0.0297,-9.48125 -0.0412,-10.375 L 125.75,161 H 98.538461 71.326923 L 69.788461,159.46154 68.25,157.92307 v -19.25 -19.25 l 1.461538,-1.46153 c 1.168954,-1.16896 1.894641,-1.46001 3.625,-1.45389 2.348257,0.008 2.662877,0.15333 4.163462,1.91901 0.939654,1.10566 1.015086,2.10136 1.25,16.5 L 79,150.25 l 23.375,0.12994 c 12.85625,0.0715 23.38141,-0.0411 23.38925,-0.25 0.008,-0.20897 0.0641,-24.00494 0.125,-52.87994 0.10809,-51.241752 0.13418,-52.530835 1.08859,-53.786587 0.53782,-0.707622 1.43782,-1.507692 2,-1.777933 0.56219,-0.270241 3.49716,-1.80511 6.52216,-3.410819 11.59889,-6.156844 14.10014,-7.486702 17.25,-9.171431 1.7875,-0.95606 4.09375,-2.163154 5.125,-2.68243 1.03125,-0.519277 1.875,-1.051388 1.875,-1.18247 C 159.75,25.107248 141.525,25 119.25,25 h -40.5 v 15.017591 c 0,16.464096 -0.03966,16.701558 -3.04942,18.257965 -2.14379,1.108597 -3.743498,0.875713 -5.683182,-0.827352 L 68.25,55.896408 V 36.541749 17.187091 L 69.782831,15.718546 71.315662,14.25 h 56.758178 56.75819 l 1.4641,1.638613 1.4641,1.638614 -0.13012,70.514988 -0.13011,70.514985 -1.25,0.96576 c -0.6875,0.53116 -2.375,1.56061 -3.75,2.28765 -1.375,0.72705 -4.6375,2.44546 -7.25,3.81869 -2.6125,1.37324 -6.325,3.33564 -8.25,4.36089 -1.925,1.02526 -6.2,3.27957 -9.5,5.00958 -3.3,1.73002 -7.4625,3.93185 -9.25,4.89296 -16.34102,8.78635 -17.42696,9.16249 -20.15082,6.97978 z"
       id="path1698" />
    <path
       style="fill:#ffffff;stroke-width:1.97047;paint-order:markers fill stroke"
       d="m 72.002543,182.76098 c 3.091688,-1.42622 3.252381,-2.15295 3.261254,-14.74922 l 0.0076,-11.375 28.947673,-7.8e-4 c 26.47051,-7.1e-4 29.1105,-0.0756 30.85034,-0.875 3.29002,-1.51167 3.41653,-2.44863 3.08779,-22.86839 l -0.64109,-17.25583 c -0.40842,-0.7292 -1.14511,-1.51205 -1.14511,-1.51205 -2.22121,-2.93298 -6.67246,-2.42525 -8.67573,0.55603 -1.02934,1.53188 -0.77972,2.67498 -0.77972,16.64493 v 14.82088 L 101.22959,146.01665 75.543618,145.88676 75.271809,92.94338 75,40 73.097336,38.533294 C 72.05087,37.726605 68.626075,35.83109 65.486678,34.321038 44.501225,24.227014 38.849376,21.354641 38.849376,20.783455 c 0,-0.523598 8.381357,-0.64669 44.03309,-0.64669 h 44.033084 v 15.143887 15.143887 c 0,0 1.32507,1.452404 1.49495,1.639904 0.94034,1.03787 2.07874,1.711145 3.72822,1.912434 1.9389,0.236607 2.3069,-0.125764 4.07714,-1.245147 0.54362,-0.34375 1.60604,-1.142678 1.84386,-1.517678 l -0.0458,-19.117353 -0.0458,-19.117353 -1.72947,-1.42129 -1.7296,-1.421291 h -61.318582 -61.3186 l -1.596651,1.532651 -1.5966612,1.532651 -0.1776544,63.592348 c -0.097748,34.975795 -0.00978,66.607385 0.1959635,70.292415 0.3409795,6.11464 0.4825479,6.79181 1.6201791,7.75 0.68561,0.57746 5.367677,3.05134 10.404594,5.49748 5.036918,2.44616 15.396056,7.49223 23.020305,11.21351 16.880612,8.23913 25.100546,12.08688 25.821874,12.08716 0.29899,1.2e-4 1.396414,-0.39318 2.438726,-0.874 z"
       id="path3063"
       sodipodi:nodetypes="sscssscssscccccsssscccssscccccccccccsssss" />
  </g>
</svg>
